<svg width="31" height="41" viewBox="0 0 31 41" fill="none" xmlns="http://www.w3.org/2000/svg">
  <g clip-path="url(#clip0_1_4044)">
    <path d="M0.855492 23.4287C1.80789 26.1922 5.37076 32.0095 12.0032 33.1711C7.16313 34.1859 -2.47007 33.5926 0.855492 23.4287Z" fill="url(#paint0_linear_1_4044)" />
    <path d="M29.8254 1.08765L24.5326 8.30077C24.7574 7.92606 22.8152 6.23988 21.8159 5.44363L29.2633 0.572431C30.1626 0.160252 30.0127 0.744171 29.8254 1.08765Z" fill="url(#paint1_linear_1_4044)" />
    <path d="M20.3639 1.27539L20.7855 5.81872C21.8628 6.33394 27.2961 13.6875 29.2633 15.7484C30.8371 17.3971 31.012 18.8086 30.9027 19.3081C30.3781 23.1676 27.3194 22.4919 25.7269 21.5083C24.7901 20.9298 22.7371 20.2449 21.488 20.0107C20.3404 19.6816 18.1155 19.3081 17.0148 19.3081C11.8813 17.9967 12.7605 13.2816 13.6191 10.7367L12.9634 10.643C11.8767 12.0295 12.0422 14.9053 12.2608 16.17C12.9634 18.8866 15.7737 21.0412 19.0993 23.0552C21.7597 24.6665 23.0806 26.8179 23.4084 27.6922C26.2562 35.7484 20.9416 39.5111 17.9283 40.3854C20.4014 35.4393 13.9938 32.5479 10.4809 31.7203C2.91175 29.2098 0.957007 22.5244 0.925781 19.4955C0.925781 9.93924 8.21704 5.20982 10.9024 3.99202C13.2257 2.94284 15.8674 3.42996 16.8978 3.80467C17.6847 2.19343 19.5365 1.44713 20.3639 1.27539Z" fill="url(#paint2_linear_1_4044)" />
  </g>
  <defs>
    <linearGradient id="paint0_linear_1_4044" x1="11.6777" y1="23.6299" x2="5.18033" y2="34.7542" gradientUnits="userSpaceOnUse">
      <stop stop-color="#403DE1" />
      <stop offset="0.0001" stop-color="#403DE1" stop-opacity="0.63" />
      <stop offset="1" stop-color="#1B38DF" />
    </linearGradient>
    <linearGradient id="paint1_linear_1_4044" x1="29.7433" y1="0.587508" x2="24.9971" y2="9.11011" gradientUnits="userSpaceOnUse">
      <stop stop-color="#D04FE4" />
      <stop offset="1" stop-color="#C32FDB" stop-opacity="0.69" />
    </linearGradient>
    <linearGradient id="paint2_linear_1_4044" x1="30.1036" y1="2.05482" x2="1.39101" y2="34.2339" gradientUnits="userSpaceOnUse">
      <stop stop-color="#D04FE4" />
      <stop offset="1" stop-color="#1B38DF" />
    </linearGradient>
    <clipPath id="clip0_1_4044">
      <rect width="30.82" height="40" fill="white" transform="translate(0.152832 0.430664)" />
    </clipPath>
  </defs>
</svg>