<svg width="82" height="30" viewBox="0 0 82 30" fill="none" xmlns="http://www.w3.org/2000/svg">
  <g clip-path="url(#clip0_1_4079)">
    <path fill-rule="evenodd" clip-rule="evenodd" d="M77.4447 22.4117C77.4447 22.4117 77.4447 16.1609 77.4447 14.7144C77.4447 12.5447 75.7083 10.7366 73.5121 10.7366C72.3373 10.7366 71.2652 11.2532 70.5502 12.0797L70.4989 12.1314C67.8943 14.8177 65.1364 17.7107 62.3787 20.4486C62.2254 20.6036 62.1233 20.6552 61.919 20.8619C60.489 22.1533 58.6504 22.8766 56.5566 22.8766C52.1134 22.8766 48.4874 19.2088 48.4874 14.7144C48.4874 10.22 52.1134 6.55218 56.5566 6.55218C56.5566 6.55218 56.5566 6.55218 56.6076 6.55218C56.6076 6.55218 56.6076 6.55218 56.6587 6.55218C59.8761 6.55218 62.634 8.41191 63.9618 11.1499L60.5401 14.6111C60.489 12.493 58.7526 10.7883 56.6076 10.7883C54.4627 10.7883 52.6752 12.5447 52.6752 14.7661C52.6752 16.9357 54.4116 18.7438 56.6076 18.7438C57.629 18.7438 58.5994 18.3306 59.2633 17.659C59.5187 17.4524 59.6208 17.349 59.6719 17.2973C59.6208 17.349 59.723 17.2457 59.6719 17.2973C59.6719 17.2973 59.723 17.2457 59.774 17.1941L67.843 8.92855C69.3242 7.48208 71.3159 6.60384 73.5121 6.60384C77.9551 6.60384 81.5812 10.2717 81.5812 14.7661C81.5812 16.3675 81.5812 17.0908 81.5812 17.349C81.5812 17.504 81.5812 17.5557 81.5812 17.504V22.4117H77.4447ZM69.5794 22.5667H65.2897V19.2088L69.5794 14.8693V22.5667ZM68.6093 6.55218C67.6391 7.53371 65.2897 9.91008 65.2897 9.91008C65.2897 9.91008 65.2897 7.53371 65.2897 6.55218C65.4939 6.55218 68.354 6.55218 68.6093 6.55218ZM20.6538 8.61857C19.4792 7.37875 17.896 6.75882 16.0064 6.75882C11.9207 6.75882 8.65219 10.375 8.65219 14.8177C8.65219 19.2605 11.9718 22.8766 16.0064 22.8766C17.896 22.8766 19.4792 22.2567 20.6538 21.0169V22.4633H24.8417V7.17209H20.6538V8.61857ZM20.6538 14.8177C20.6538 17.1941 19.0196 18.8471 16.7214 18.8471C14.4232 18.8471 12.84 17.1941 12.84 14.8177C12.84 12.4413 14.4232 10.7883 16.7214 10.7883C19.0196 10.7883 20.6538 12.4413 20.6538 14.8177ZM35.924 0.766307H36.0772V4.84741H35.8729C34.8004 4.74409 34.0344 4.95073 33.5747 5.36401C33.1662 5.72563 32.9619 6.34554 32.9619 7.12043H36.0772V11.2015H32.9619V22.4117H28.7741V11.2532H26.6291V7.17209H28.7741C28.7741 5.05405 29.3869 3.40095 30.5105 2.31609C31.7873 1.12792 33.5748 0.611328 35.924 0.766307ZM2.62585 7.17209H6.81367V22.6183C6.81367 24.8913 6.30295 26.4928 5.17938 27.526C4.20904 28.4558 2.83013 28.9208 0.940513 28.9208C0.685158 28.9208 0.429806 28.9208 0.174453 28.9208H0.0212402V24.8397H0.225523C1.09373 24.8913 1.70657 24.7364 2.11514 24.3748C2.47264 24.0131 2.67692 23.4449 2.67692 22.6183V7.17209H2.62585ZM43.9421 11.2532V17.2973C43.9421 17.7623 44.0442 18.0723 44.2485 18.2789C44.7082 18.6922 45.7296 18.6922 47.0574 18.6406H47.2617V22.515H47.1085C46.3935 22.6183 45.7296 22.6183 45.1167 22.6183C43.2782 22.6183 42.0014 22.2567 41.1332 21.4818C40.2139 20.6552 39.7543 19.3121 39.7543 17.2973V11.2532H37.2008V7.17209H39.7543V4.17584L43.9421 2.88435V7.12043H47.2617V11.2015H43.9421V11.2532ZM7.2222 3.19431C7.2222 4.58912 6.04759 5.72563 4.71975 5.72563C3.28977 5.72563 2.16621 4.58912 2.16621 3.19431C2.16621 1.7995 3.34084 0.611328 4.71975 0.611328C6.09866 0.611328 7.2222 1.7995 7.2222 3.19431Z" fill="#2A43D4" />
  </g>
  <defs>
    <clipPath id="clip0_1_4079">
      <rect width="81.56" height="28.94" fill="white" transform="translate(0.0212402 0.611328)" />
    </clipPath>
  </defs>
</svg>